<svg width="139" height="134" viewBox="0 0 139 134" fill="none" xmlns="http://www.w3.org/2000/svg">
<path d="M51.4004 3.11523L91.1182 3.11523V25.7002C91.1182 37.7434 100.882 47.5068 112.925 47.5068L135.51 47.5068L135.51 115.262C135.51 123.864 128.536 130.837 119.934 130.837H51.4004C42.7982 130.837 35.8244 123.864 35.8242 115.262L35.8242 18.6914C35.8242 10.2235 42.5815 3.33333 50.998 3.12012L51.4004 3.11523ZM97.3486 7.52051L131.104 41.2764L112.925 41.2764C104.322 41.2764 97.3486 34.3025 97.3486 25.7002V7.52051Z" fill="#EEF1F7" stroke="#CBD0DC" stroke-width="6.23035"/>
<rect y="59.1885" width="93.4552" height="54.5155" rx="10.9031" fill="black"/>
<path d="M6.2 100V71.6H13.2L21.04 93.6L28.88 71.6H35.88V100H30.68V80.4L23.52 99.96H18.56L11.4 80.4V100H6.2ZM41.6688 100V71.6H52.6688C56.0021 71.6 58.6021 72.4 60.4688 74C62.3354 75.6 63.2688 77.8133 63.2688 80.64C63.2688 82.5333 62.8421 84.1733 61.9887 85.56C61.1354 86.92 59.9221 87.96 58.3488 88.68C56.7754 89.4 54.8821 89.76 52.6688 89.76H46.8688V100H41.6688ZM46.8688 85.24H52.4288C54.1888 85.24 55.5354 84.8533 56.4688 84.08C57.4288 83.3067 57.9088 82.16 57.9088 80.64C57.9088 79.1467 57.4288 78.0267 56.4688 77.28C55.5354 76.5067 54.1888 76.12 52.4288 76.12H46.8688V85.24ZM77.6713 100.64C74.2846 100.64 71.6713 99.8667 69.8313 98.32C67.9913 96.7467 67.0046 94.64 66.8713 92L72.1913 91.76C72.3513 93.28 72.9113 94.3867 73.8713 95.08C74.8579 95.7733 76.1246 96.12 77.6713 96.12C78.7113 96.12 79.6579 95.9733 80.5113 95.68C81.3646 95.36 82.0446 94.88 82.5513 94.24C83.0579 93.6 83.3113 92.7733 83.3113 91.76C83.3113 90.2133 82.7913 89.0667 81.7513 88.32C80.7113 87.5733 79.3246 87.2 77.5913 87.2H75.1113V83.08H77.5913C78.9513 83.08 80.0846 82.8 80.9913 82.24C81.9246 81.6533 82.3913 80.68 82.3913 79.32C82.3913 78.0933 82.0046 77.1467 81.2313 76.48C80.4846 75.8133 79.3113 75.48 77.7113 75.48C76.1379 75.48 74.9513 75.8 74.1513 76.44C73.3513 77.08 72.8713 77.92 72.7113 78.96L67.3913 78.68C67.6846 76.3333 68.7113 74.4667 70.4713 73.08C72.2579 71.6667 74.6713 70.96 77.7113 70.96C79.8446 70.96 81.6579 71.28 83.1513 71.92C84.6446 72.56 85.7779 73.4667 86.5513 74.64C87.3513 75.8133 87.7513 77.2133 87.7513 78.84C87.7513 80.5467 87.1913 81.9467 86.0713 83.04C84.9513 84.1333 83.3513 84.8667 81.2713 85.24V84.56C83.5913 84.88 85.4046 85.7067 86.7113 87.04C88.0179 88.3467 88.6713 90.0133 88.6713 92.04C88.6713 93.8533 88.2179 95.4 87.3113 96.68C86.4046 97.96 85.1246 98.9467 83.4713 99.64C81.8179 100.307 79.8846 100.64 77.6713 100.64Z" fill="white"/>
</svg>
