<svg width="139" height="134" viewBox="0 0 139 134" fill="none" xmlns="http://www.w3.org/2000/svg">
<path d="M51.4004 3.11523L91.1182 3.11523V25.7002C91.1182 37.7434 100.882 47.5068 112.925 47.5068L135.51 47.5068L135.51 115.262C135.51 123.864 128.536 130.837 119.934 130.837H51.4004C42.7982 130.837 35.8244 123.864 35.8242 115.262L35.8242 18.6914C35.8242 10.2235 42.5815 3.33333 50.998 3.12012L51.4004 3.11523ZM97.3486 7.52051L131.104 41.2764L112.925 41.2764C104.322 41.2764 97.3486 34.3025 97.3486 25.7002V7.52051Z" fill="#EEF1F7" stroke="#CBD0DC" stroke-width="6.23035"/>
<rect y="59.1885" width="93.4552" height="54.5155" rx="10.9031" fill="black"/>
<path d="M6.2 100V71.6H13.2L21.04 93.6L28.88 71.6H35.88V100H30.68V80.4L23.52 99.96H18.56L11.4 80.4V100H6.2ZM41.6688 100V71.6H52.6688C56.0021 71.6 58.6021 72.4 60.4688 74C62.3354 75.6 63.2688 77.8133 63.2688 80.64C63.2688 82.5333 62.8421 84.1733 61.9887 85.56C61.1354 86.92 59.9221 87.96 58.3488 88.68C56.7754 89.4 54.8821 89.76 52.6688 89.76H46.8688V100H41.6688ZM46.8688 85.24H52.4288C54.1888 85.24 55.5354 84.8533 56.4688 84.08C57.4288 83.3067 57.9088 82.16 57.9088 80.64C57.9088 79.1467 57.4288 78.0267 56.4688 77.28C55.5354 76.5067 54.1888 76.12 52.4288 76.12H46.8688V85.24ZM80.3113 100V94.32H66.0713V90.08L79.4713 71.6H85.5113V89.8H88.9113V94.32H85.5113V100H80.3113ZM71.7513 89.8H80.3113V78.36L71.7513 89.8Z" fill="white"/>
</svg>
