<svg width="139" height="134" viewBox="0 0 139 134" fill="none" xmlns="http://www.w3.org/2000/svg">
<path d="M51.4004 3.11523L91.1182 3.11523V25.7002C91.1182 37.7434 100.882 47.5068 112.925 47.5068L135.51 47.5068L135.51 115.262C135.51 123.864 128.536 130.837 119.934 130.837H51.4004C42.7982 130.837 35.8244 123.864 35.8242 115.262L35.8242 18.6914C35.8242 10.2235 42.5815 3.33333 50.998 3.12012L51.4004 3.11523ZM97.3486 7.52051L131.104 41.2764L112.925 41.2764C104.322 41.2764 97.3486 34.3025 97.3486 25.7002V7.52051Z" fill="#EEF1F7" stroke="#CBD0DC" stroke-width="6.23035"/>
<rect y="59.1885" width="93.4552" height="54.5155" rx="10.9031" fill="#D82042"/>
<path d="M11.2 101V72.6H22.2C25.5333 72.6 28.1333 73.4 30 75C31.8667 76.6 32.8 78.8133 32.8 81.64C32.8 83.5333 32.3733 85.1733 31.52 86.56C30.6667 87.92 29.4533 88.96 27.88 89.68C26.3067 90.4 24.4133 90.76 22.2 90.76H16.4V101H11.2ZM16.4 86.24H21.96C23.72 86.24 25.0667 85.8533 26 85.08C26.96 84.3067 27.44 83.16 27.44 81.64C27.44 80.1467 26.96 79.0267 26 78.28C25.0667 77.5067 23.72 77.12 21.96 77.12H16.4V86.24ZM36.9813 101V72.6H46.4213C50.9546 72.6 54.4346 73.84 56.8613 76.32C59.3146 78.7733 60.5413 82.28 60.5413 86.84C60.5413 91.3733 59.3413 94.8667 56.9413 97.32C54.5413 99.7733 51.1146 101 46.6613 101H36.9813ZM42.1813 96.48H46.4213C49.3813 96.48 51.5813 95.68 53.0213 94.08C54.4613 92.48 55.1813 90.0667 55.1813 86.84C55.1813 83.56 54.4613 81.12 53.0213 79.52C51.5813 77.92 49.3813 77.12 46.4213 77.12H42.1813V96.48ZM64.8328 101V72.6H83.8328V77.12H67.1928L70.0328 74.2V87.24L67.1928 84.88H83.1128V89.36H67.1928L70.0328 87V101H64.8328Z" fill="white"/>
</svg>
