<svg width="139" height="134" viewBox="0 0 139 134" fill="none" xmlns="http://www.w3.org/2000/svg">
<path d="M51.4004 3.11523L91.1182 3.11523V25.7002C91.1182 37.7434 100.882 47.5068 112.925 47.5068L135.51 47.5068L135.51 115.262C135.51 123.864 128.536 130.837 119.934 130.837H51.4004C42.7982 130.837 35.8244 123.864 35.8242 115.262L35.8242 18.6914C35.8242 10.2235 42.5815 3.33333 50.998 3.12012L51.4004 3.11523ZM97.3486 7.52051L131.104 41.2764L112.925 41.2764C104.322 41.2764 97.3486 34.3025 97.3486 25.7002V7.52051Z" fill="#EEF1F7" stroke="#CBD0DC" stroke-width="6.23035"/>
<rect y="59.1885" width="93.4552" height="54.5155" rx="10.9031" fill="#D24626"/>
<path d="M37.2 101V72.6H48.2C51.5333 72.6 54.1333 73.4 56 75C57.8667 76.6 58.8 78.8133 58.8 81.64C58.8 83.5333 58.3733 85.1733 57.52 86.56C56.6667 87.92 55.4533 88.96 53.88 89.68C52.3067 90.4 50.4133 90.76 48.2 90.76H42.4V101H37.2ZM42.4 86.24H47.96C49.72 86.24 51.0667 85.8533 52 85.08C52.96 84.3067 53.44 83.16 53.44 81.64C53.44 80.1467 52.96 79.0267 52 78.28C51.0667 77.5067 49.72 77.12 47.96 77.12H42.4V86.24Z" fill="white"/>
</svg>
