<svg width="139" height="134" viewBox="0 0 139 134" fill="none" xmlns="http://www.w3.org/2000/svg">
<path d="M51.4004 3.11523L91.1182 3.11523V25.7002C91.1182 37.7434 100.882 47.5068 112.925 47.5068L135.51 47.5068L135.51 115.262C135.51 123.864 128.536 130.837 119.934 130.837H51.4004C42.7982 130.837 35.8244 123.864 35.8242 115.262L35.8242 18.6914C35.8242 10.2235 42.5815 3.33333 50.998 3.12012L51.4004 3.11523ZM97.3486 7.52051L131.104 41.2764L112.925 41.2764C104.322 41.2764 97.3486 34.3025 97.3486 25.7002V7.52051Z" fill="#EEF1F7" stroke="#CBD0DC" stroke-width="6.23035"/>
<rect y="59.1885" width="93.4552" height="54.5155" rx="10.9031" fill="#185ABD"/>
<path d="M36.08 101L28.48 72.6H33.96L39.16 93.8L44.4 72.6H49.24L54.48 93.8L59.64 72.6H65.16L57.56 101H51.8L46.84 81.56L41.88 101H36.08Z" fill="white"/>
</svg>
